<?xml version="1.0" encoding="UTF-8"?>
<svg width="311px" height="75px" viewBox="0 0 311 75" version="1.1" xmlns="http://www.w3.org/2000/svg" xmlns:xlink="http://www.w3.org/1999/xlink">
    <title>Haulland Full Logo</title>
    <g id="Page-1" stroke="none" stroke-width="1" fill="none" fill-rule="evenodd">
        <g id="Artboard" transform="translate(-46.000000, -508.000000)" fill="#FFFFFF">
            <g id="Haulland-Full-Logo" transform="translate(46.000000, 508.000000)">
                <g id="Group-6-Copy" transform="translate(82.000000, 39.000000)">
                    <text id="TRUCKING-Copy" font-family="Walden-Regular, Walden" font-size="28" font-weight="normal" line-spacing="36">
                        <tspan x="0" y="29">TRUCKING</tspan>
                    </text>
                    <text id="INC.-Copy-2" font-family="Walden-BoldItalic, Walden" font-size="16" font-style="italic" font-weight="bold" line-spacing="20">
                        <tspan x="168" y="22"> INC.</tspan>
                    </text>
                </g>
                <path d="M97.456,39.2 L97.456,36.824 C95.296,36.536 94.288,35.816 94.288,33.944 L94.288,27.896 L104.728,27.896 L104.728,33.944 C104.728,35.816 103.72,36.536 101.632,36.824 L101.632,39.2 L114.016,39.2 L114.016,36.824 C111.964,36.536 111.028,35.816 111.028,33.944 L111.028,19.256 C111.028,17.384 111.964,16.664 114.016,16.376 L114.016,14 L101.56,14 L101.56,16.376 C103.72,16.664 104.728,17.384 104.728,19.256 L104.728,24.332 L94.288,24.332 L94.288,19.256 C94.288,17.384 95.296,16.664 97.456,16.376 L97.456,14 L85,14 L85,16.376 C87.016,16.664 87.988,17.384 87.988,19.256 L87.988,33.944 C87.988,35.816 87.016,36.536 85,36.824 L85,39.2 L97.456,39.2 Z M125.392,39.2 L125.392,36.824 C123.304,36.464 122.404,35.42 123.124,33.44 L123.88,31.388 C129.748,30.632 133.996,31.892 133.996,34.988 C133.996,36.248 133.024,36.716 131.98,36.824 L131.98,39.2 L143.788,39.2 L143.788,36.824 C142.24,36.572 141.628,35.816 140.944,33.872 L133.276,14 L122.332,14 L122.332,16.376 C124.348,16.592 125.392,17.672 124.456,20.012 L119.092,33.8 C118.336,35.78 117.616,36.536 116.032,36.824 L116.032,39.2 L125.392,39.2 Z M132.304,28.796 C130.432,28.04 128.092,27.68 125.176,27.932 L128.524,18.932 L132.304,28.796 Z M159.196,39.776 C166.612,39.776 171.22,35.024 171.22,26.96 L171.22,19.256 C171.22,17.384 172.192,16.664 174.208,16.376 L174.208,14 L161.968,14 L161.968,16.376 C163.984,16.664 164.92,17.384 164.92,19.256 L164.92,28.616 C164.92,33.584 163.336,35.888 159.988,35.888 C156.28,35.888 154.588,32.9 154.588,27.932 L154.588,19.256 C154.588,17.384 155.524,16.664 157.576,16.376 L157.576,14 L145.3,14 L145.3,16.376 C147.316,16.664 148.288,17.384 148.288,19.256 L148.288,28.616 C148.288,34.628 151.6,39.776 159.196,39.776 Z M198.004,39.74 L199.444,29.66 L196.852,29.084 C195.196,33.98 193.036,35.636 189.148,35.636 L186.412,35.636 L186.412,19.436 C186.412,17.384 187.636,16.664 189.796,16.376 L189.796,14 L176.944,14 L176.944,16.376 C179.104,16.664 180.112,17.384 180.112,19.436 L180.112,33.944 C180.112,35.816 179.104,36.536 176.944,36.824 L176.944,39.2 L193.684,39.2 C195.376,39.2 196.888,39.38 198.004,39.74 Z M222.268,39.74 L223.708,29.66 L221.116,29.084 C219.46,33.98 217.3,35.636 213.412,35.636 L210.676,35.636 L210.676,19.436 C210.676,17.384 211.9,16.664 214.06,16.376 L214.06,14 L201.208,14 L201.208,16.376 C203.368,16.664 204.376,17.384 204.376,19.436 L204.376,33.944 C204.376,35.816 203.368,36.536 201.208,36.824 L201.208,39.2 L217.948,39.2 C219.64,39.2 221.152,39.38 222.268,39.74 Z M233.608,39.2 L233.608,36.824 C231.52,36.464 230.62,35.42 231.34,33.44 L232.096,31.388 C237.964,30.632 242.212,31.892 242.212,34.988 C242.212,36.248 241.24,36.716 240.196,36.824 L240.196,39.2 L252.004,39.2 L252.004,36.824 C250.456,36.572 249.844,35.816 249.16,33.872 L241.492,14 L230.548,14 L230.548,16.376 C232.564,16.592 233.608,17.672 232.672,20.012 L227.308,33.8 C226.552,35.78 225.832,36.536 224.248,36.824 L224.248,39.2 L233.608,39.2 Z M240.52,28.796 C238.648,28.04 236.308,27.68 233.392,27.932 L236.74,18.932 L240.52,28.796 Z M263.992,39.2 L263.992,36.824 C261.832,36.536 260.824,35.816 260.824,33.944 L260.824,20.336 L271.084,39.2 L278.464,39.2 L278.464,19.256 C278.464,17.384 279.4,16.664 281.416,16.376 L281.416,14 L271.444,14 L271.444,16.376 C273.604,16.664 274.612,17.384 274.612,19.256 L274.612,32.504 L264.532,14 L254.02,14 L254.02,16.376 C256.036,16.664 257.008,17.384 257.008,19.256 L257.008,33.944 C257.008,35.816 256.036,36.536 254.02,36.824 L254.02,39.2 L263.992,39.2 Z M295.528,39.2 C304.744,39.2 310.972,34.52 310.972,25.88 C310.972,19.328 306.04,14 296.068,14 L284.332,14 L284.332,16.376 C286.348,16.664 287.32,17.384 287.32,19.256 L287.32,33.944 C287.32,35.816 286.348,36.536 284.332,36.824 L284.332,39.2 L295.528,39.2 Z M296.068,35.636 L293.62,35.636 L293.62,17.564 L294.808,17.564 C301.9,17.636 304.24,21.992 304.24,26.852 C304.24,32.504 300.784,35.636 296.068,35.636 Z" id="HAULLAND" fill-rule="nonzero"></path>
                <path d="M74,54 L74,74 L62.4282094,73.9995949 C55.4128655,66.6086864 45.4946409,62 34.5,62 C23.5053591,62 13.5871345,66.6086864 6.57179058,73.9995949 L0,74 L0,54 L74,54 Z M13,18 L13,21.551 L45,21.5517241 L45,50 L7,50 L7,18 L13,18 Z M74,0 L74,50 L48,50 L48,10.3448276 L66,10.3448276 L66,0 L74,0 Z" id="Combined-Shape"></path>
            </g>
        </g>
    </g>
</svg>