<svg xmlns="http://www.w3.org/2000/svg" height="64" width="64" viewBox="0 0 64 64"><title>phone</title><g fill="#fa6400" class="nc-icon-wrapper"><path d="M41.722,38.822l-4.727,5.9A49.889,49.889,0,0,1,19.27,27.007l5.909-4.727a4.016,4.016,0,0,0,1.16-4.764L20.953,5.387a4.017,4.017,0,0,0-4.681-2.258L6.018,5.789a4.04,4.04,0,0,0-2.98,4.461A59.576,59.576,0,0,0,53.75,60.962a4.039,4.039,0,0,0,4.461-2.98l2.66-10.253a4.021,4.021,0,0,0-2.257-4.682L46.487,37.661A4.014,4.014,0,0,0,41.722,38.822Z" fill="#fa6400"></path></g></svg>